# xmcd
#
# Track frame offsets:
#	150
#	16026
#	29347
#	46794
#	64568
#	81155
#	97178
#	117237
#	133158
#	147594
#	166009
#
# Disc length: 2457 seconds
#
# Revision: 1
# Processed by: cddbd v1.5.1PL0 Copyright (c) Steve Scherf et al.
# Submitted via: audiograbber 1.83.01
#
DISCID=8c09970b
DTITLE=Shannon Lawson - Chase the sun
DYEAR=1900
DGENRE=Country
TTITLE0=This old heart
TTITLE1=Chase the sun
TTITLE2=Dream your way to me
TTITLE3=Goodbye on a bad day
TTITLE4=Bad, bad, bad
TTITLE5=Superstar
TTITLE6=Where would I go
TTITLE7=Who'se your daddy
TTITLE8=Slow down sunrise
TTITLE9=Are you happy now
TTITLE10=Let's get it on
EXTD=
EXTT0=
EXTT1=
EXTT2=
EXTT3=
EXTT4=
EXTT5=
EXTT6=
EXTT7=
EXTT8=
EXTT9=
EXTT10=
PLAYORDER=
